<svg xmlns="http://www.w3.org/2000/svg" width="1200" height="630" viewBox="0 0 1200 630" role="img" aria-labelledby="title desc">
  <title id="title">Kiran Jojare Embedded Firmware Portfolio</title>
  <desc id="desc">Open graph preview card for Kiran Jojare portfolio.</desc>
  <defs>
    <linearGradient id="bg" x1="0" x2="1" y1="0" y2="1">
      <stop offset="0%" stop-color="#08101d" />
      <stop offset="55%" stop-color="#0c1b30" />
      <stop offset="100%" stop-color="#102746" />
    </linearGradient>
    <linearGradient id="accent" x1="0" x2="1" y1="0" y2="0">
      <stop offset="0%" stop-color="#3ec5ff" />
      <stop offset="100%" stop-color="#42dca6" />
    </linearGradient>
    <filter id="blur" x="-20%" y="-20%" width="140%" height="140%">
      <feGaussianBlur stdDeviation="36" />
    </filter>
  </defs>

  <rect width="1200" height="630" fill="url(#bg)" />

  <circle cx="1020" cy="70" r="170" fill="#3ec5ff" opacity="0.22" filter="url(#blur)" />
  <circle cx="120" cy="560" r="180" fill="#ffbb5b" opacity="0.2" filter="url(#blur)" />

  <rect x="70" y="70" width="1060" height="490" rx="28" fill="#0d1f36" opacity="0.9" stroke="#2b4a6d" />
  <rect x="70" y="70" width="1060" height="8" rx="4" fill="url(#accent)" />

  <text x="110" y="150" fill="#9db2d0" font-size="28" font-family="'IBM Plex Mono', monospace" letter-spacing="1.5">EMBEDDED SOFTWARE AND FIRMWARE ENGINEER</text>
  <text x="110" y="250" fill="#eef4ff" font-size="72" font-weight="700" font-family="'Space Grotesk', Arial, sans-serif">Kiran Jojare</text>
  <text x="110" y="320" fill="#9db2d0" font-size="32" font-family="'Space Grotesk', Arial, sans-serif">C/C++ | TI F28xx | STM32 | ESP32 | Embedded Toolchains</text>

  <g font-family="'IBM Plex Mono', monospace" font-size="24" fill="#c8dcf8">
    <rect x="110" y="385" width="232" height="46" rx="23" fill="#15304f" stroke="#2b4a6d" />
    <text x="145" y="415">CAN / LIN / UART</text>

    <rect x="360" y="385" width="170" height="46" rx="23" fill="#15304f" stroke="#2b4a6d" />
    <text x="400" y="415">SPI / I2C</text>

    <rect x="548" y="385" width="245" height="46" rx="23" fill="#15304f" stroke="#2b4a6d" />
    <text x="585" y="415">MATLAB / Simulink</text>

    <rect x="811" y="385" width="182" height="46" rx="23" fill="#15304f" stroke="#2b4a6d" />
    <text x="849" y="415">GCC / GDB</text>
  </g>

  <text x="110" y="505" fill="#9db2d0" font-size="26" font-family="'Space Grotesk', Arial, sans-serif">Portfolio: kiranj26.github.io</text>
</svg>
